<mxfile host="app.diagrams.net" modified="2020-03-30T06:39:53.835Z" agent="5.0 (Macintosh; Intel Mac OS X 10_14_6) AppleWebKit/605.1.15 (KHTML, like Gecko) Version/13.1 Safari/605.1.15" etag="LzRvZrhUpewkrQ36P2Vz" version="12.9.4" type="github">
  <diagram name="Page-1" id="1622d65d-c77d-c4b6-e0e7-3c11208c8684">
    <mxGraphModel dx="1113" dy="819" grid="1" gridSize="10" guides="1" tooltips="1" connect="1" arrows="1" fold="1" page="1" pageScale="1.5" pageWidth="1169" pageHeight="826" background="#ffffff" math="0" shadow="0">
      <root>
        <mxCell id="0" style=";html=1;" />
        <mxCell id="1" style=";html=1;" parent="0" />
        <mxCell id="sVLnHsk-5qbUHLEEGtPF-48" value="" style="group" vertex="1" connectable="0" parent="1">
          <mxGeometry x="110" y="210" width="930" height="490" as="geometry" />
        </mxCell>
        <mxCell id="869962fe87da545-3" value="" style="whiteSpace=wrap;html=1;rounded=0;shadow=0;dashed=0;strokeWidth=1;fontFamily=Tahoma;fontSize=10;fontColor=#FFFFFF;strokeColor=none;fillColor=#7FB61A;gradientColor=#1B622A;gradientDirection=west;" parent="sVLnHsk-5qbUHLEEGtPF-48" vertex="1">
          <mxGeometry x="775" y="96.92307692307695" width="148.79999999999998" height="96.92307692307695" as="geometry" />
        </mxCell>
        <mxCell id="869962fe87da545-4" value="" style="verticalLabelPosition=bottom;verticalAlign=top;html=1;strokeWidth=1;shape=mxgraph.basic.orthogonal_triangle;rounded=0;shadow=0;dashed=0;fontFamily=Tahoma;fontSize=10;fontColor=#FFFFFF;flipV=1;fillColor=#000000;strokeColor=none;opacity=50;" parent="sVLnHsk-5qbUHLEEGtPF-48" vertex="1">
          <mxGeometry x="775" y="172.30769230769235" width="86.8" height="21.538461538461544" as="geometry" />
        </mxCell>
        <mxCell id="869962fe87da545-6" value="" style="whiteSpace=wrap;html=1;rounded=0;shadow=0;dashed=0;strokeWidth=1;fontFamily=Tahoma;fontSize=10;fontColor=#FFFFFF;strokeColor=none;fillColor=#5398DB;gradientColor=#1247B9;gradientDirection=west;" parent="sVLnHsk-5qbUHLEEGtPF-48" vertex="1">
          <mxGeometry x="781.1999999999999" y="236.92307692307696" width="148.79999999999998" height="96.92307692307695" as="geometry" />
        </mxCell>
        <mxCell id="869962fe87da545-7" value="" style="verticalLabelPosition=bottom;verticalAlign=top;html=1;strokeWidth=1;shape=mxgraph.basic.orthogonal_triangle;rounded=0;shadow=0;dashed=0;fontFamily=Tahoma;fontSize=10;fontColor=#FFFFFF;flipV=1;fillColor=#000000;strokeColor=none;opacity=50;" parent="sVLnHsk-5qbUHLEEGtPF-48" vertex="1">
          <mxGeometry x="781.1999999999999" y="312.3076923076923" width="86.8" height="21.538461538461544" as="geometry" />
        </mxCell>
        <mxCell id="869962fe87da545-9" value="" style="whiteSpace=wrap;html=1;rounded=0;shadow=0;dashed=0;strokeWidth=1;fontFamily=Tahoma;fontSize=10;fontColor=#FFFFFF;strokeColor=none;fillColor=#8D029D;gradientColor=#65009E;gradientDirection=west;" parent="sVLnHsk-5qbUHLEEGtPF-48" vertex="1">
          <mxGeometry x="781.1999999999999" y="371.53846153846155" width="148.79999999999998" height="96.92307692307695" as="geometry" />
        </mxCell>
        <mxCell id="869962fe87da545-10" value="" style="verticalLabelPosition=bottom;verticalAlign=top;html=1;strokeWidth=1;shape=mxgraph.basic.orthogonal_triangle;rounded=0;shadow=0;dashed=0;fontFamily=Tahoma;fontSize=10;fontColor=#FFFFFF;flipV=1;fillColor=#000000;strokeColor=none;opacity=50;" parent="sVLnHsk-5qbUHLEEGtPF-48" vertex="1">
          <mxGeometry x="781.1999999999999" y="446.92307692307696" width="86.8" height="21.538461538461544" as="geometry" />
        </mxCell>
        <mxCell id="869962fe87da545-5" value="" style="whiteSpace=wrap;html=1;rounded=0;shadow=0;dashed=0;strokeWidth=1;fillColor=#E6E6E6;fontFamily=Verdana;fontSize=70;strokeColor=none;verticalAlign=top;spacingTop=10;" parent="sVLnHsk-5qbUHLEEGtPF-48" vertex="1">
          <mxGeometry width="812.1999999999999" height="490" as="geometry" />
        </mxCell>
        <mxCell id="869962fe87da545-2" value="" style="html=1;shadow=0;dashed=0;align=center;verticalAlign=middle;shape=mxgraph.arrows2.arrow;dy=0;dx=0;notch=30;rounded=0;strokeColor=none;strokeWidth=1;fillColor=#7FB61A;fontFamily=Tahoma;fontSize=10;fontColor=#FFFFFF;gradientColor=#1B622A;gradientDirection=east;" parent="sVLnHsk-5qbUHLEEGtPF-48" vertex="1">
          <mxGeometry x="111.6" y="75.38461538461539" width="750.2" height="96.92307692307695" as="geometry" />
        </mxCell>
        <mxCell id="869962fe87da545-8" value="" style="html=1;shadow=0;dashed=0;align=center;verticalAlign=middle;shape=mxgraph.arrows2.arrow;dy=0;dx=0;notch=30;rounded=0;strokeColor=none;strokeWidth=1;fillColor=#5398DB;fontFamily=Tahoma;fontSize=10;fontColor=#FFFFFF;gradientColor=#1247B9;gradientDirection=east;" parent="sVLnHsk-5qbUHLEEGtPF-48" vertex="1">
          <mxGeometry x="117.80000000000001" y="215.38461538461542" width="750.2" height="96.92307692307695" as="geometry" />
        </mxCell>
        <mxCell id="869962fe87da545-11" value="" style="html=1;shadow=0;dashed=0;align=center;verticalAlign=middle;shape=mxgraph.arrows2.arrow;dy=0;dx=0;notch=30;rounded=0;strokeColor=none;strokeWidth=1;fillColor=#8D029D;fontFamily=Tahoma;fontSize=10;fontColor=#FFFFFF;gradientColor=#65009E;gradientDirection=east;" parent="sVLnHsk-5qbUHLEEGtPF-48" vertex="1">
          <mxGeometry x="117.80000000000001" y="350.00000000000006" width="750.2" height="96.92307692307695" as="geometry" />
        </mxCell>
        <mxCell id="869962fe87da545-18" value="&lt;font style=&quot;font-size: 35px&quot;&gt;Data scientist&lt;/font&gt;" style="text;html=1;strokeColor=none;fillColor=none;align=center;verticalAlign=middle;whiteSpace=wrap;rounded=0;shadow=0;dashed=0;fontFamily=Verdana;fontSize=70;horizontal=0;" parent="sVLnHsk-5qbUHLEEGtPF-48" vertex="1">
          <mxGeometry x="12.399999999999999" y="91.53846153846155" width="80.6" height="355.3846153846154" as="geometry" />
        </mxCell>
        <mxCell id="869962fe87da545-19" value="1" style="text;html=1;strokeColor=none;fillColor=none;align=right;verticalAlign=middle;whiteSpace=wrap;rounded=0;shadow=0;dashed=0;fontFamily=Helvetica;fontSize=150;fontColor=#FFFFFF;" parent="sVLnHsk-5qbUHLEEGtPF-48" vertex="1">
          <mxGeometry x="130.2" y="75.38461538461539" width="123.99999999999999" height="96.92307692307695" as="geometry" />
        </mxCell>
        <mxCell id="869962fe87da545-20" value="2" style="text;html=1;strokeColor=none;fillColor=none;align=right;verticalAlign=middle;whiteSpace=wrap;rounded=0;shadow=0;dashed=0;fontFamily=Helvetica;fontSize=150;fontColor=#FFFFFF;" parent="sVLnHsk-5qbUHLEEGtPF-48" vertex="1">
          <mxGeometry x="136.39999999999998" y="215.38461538461542" width="123.99999999999999" height="96.92307692307695" as="geometry" />
        </mxCell>
        <mxCell id="869962fe87da545-21" value="3" style="text;html=1;strokeColor=none;fillColor=none;align=right;verticalAlign=middle;whiteSpace=wrap;rounded=0;shadow=0;dashed=0;fontFamily=Helvetica;fontSize=150;fontColor=#FFFFFF;" parent="sVLnHsk-5qbUHLEEGtPF-48" vertex="1">
          <mxGeometry x="136.39999999999998" y="350.00000000000006" width="123.99999999999999" height="96.92307692307695" as="geometry" />
        </mxCell>
        <mxCell id="869962fe87da545-24" value="" style="line;strokeWidth=4;direction=south;html=1;rounded=0;shadow=0;dashed=0;fillColor=none;gradientColor=#AD0002;fontFamily=Helvetica;fontSize=150;fontColor=#FFFFFF;align=right;strokeColor=#FFFFFF;" parent="sVLnHsk-5qbUHLEEGtPF-48" vertex="1">
          <mxGeometry x="266.59999999999997" y="80.76923076923079" width="6.199999999999999" height="86.15384615384617" as="geometry" />
        </mxCell>
        <mxCell id="869962fe87da545-25" value="" style="line;strokeWidth=4;direction=south;html=1;rounded=0;shadow=0;dashed=0;fillColor=none;gradientColor=#AD0002;fontFamily=Helvetica;fontSize=150;fontColor=#FFFFFF;align=right;strokeColor=#FFFFFF;" parent="sVLnHsk-5qbUHLEEGtPF-48" vertex="1">
          <mxGeometry x="266.59999999999997" y="220.7692307692308" width="6.199999999999999" height="86.15384615384617" as="geometry" />
        </mxCell>
        <mxCell id="869962fe87da545-26" value="" style="line;strokeWidth=4;direction=south;html=1;rounded=0;shadow=0;dashed=0;fillColor=none;gradientColor=#AD0002;fontFamily=Helvetica;fontSize=150;fontColor=#FFFFFF;align=right;strokeColor=#FFFFFF;" parent="sVLnHsk-5qbUHLEEGtPF-48" vertex="1">
          <mxGeometry x="266.59999999999997" y="355.3846153846154" width="6.199999999999999" height="86.15384615384617" as="geometry" />
        </mxCell>
        <mxCell id="869962fe87da545-29" value="&lt;h1 style=&quot;font-size: 16px&quot;&gt;&lt;font style=&quot;font-size: 16px&quot;&gt;ビジネス力&lt;/font&gt;&lt;/h1&gt;&lt;p style=&quot;font-size: 16px&quot;&gt;&lt;font style=&quot;font-size: 16px&quot;&gt;データの意味を理解し、分析し、ビジネスにどう活かすか考えられる人材&lt;/font&gt;&lt;/p&gt;" style="text;html=1;strokeColor=none;fillColor=none;spacing=5;spacingTop=-20;whiteSpace=wrap;overflow=hidden;rounded=0;shadow=0;dashed=0;fontFamily=Helvetica;fontSize=15;fontColor=#FFFFFF;align=left;" parent="sVLnHsk-5qbUHLEEGtPF-48" vertex="1">
          <mxGeometry x="291.4" y="86.15384615384617" width="415.4" height="75.38461538461539" as="geometry" />
        </mxCell>
        <mxCell id="869962fe87da545-34" value="" style="shadow=0;dashed=0;html=1;strokeColor=none;fillColor=#FFFFFF;labelPosition=center;verticalLabelPosition=bottom;verticalAlign=top;shape=mxgraph.office.users.users;rounded=0;fontFamily=Helvetica;fontSize=12;fontColor=#FFFFFF;align=left;" parent="sVLnHsk-5qbUHLEEGtPF-48" vertex="1">
          <mxGeometry x="771.8999999999996" y="96.92307692307695" width="57.04" height="53.846153846153854" as="geometry" />
        </mxCell>
        <mxCell id="869962fe87da545-37" value="" style="shadow=0;dashed=0;html=1;strokeColor=none;fillColor=#FFFFFF;labelPosition=center;verticalLabelPosition=bottom;verticalAlign=top;shape=mxgraph.office.concepts.maintenance;rounded=0;fontFamily=Helvetica;fontSize=12;fontColor=#FFFFFF;align=left;" parent="sVLnHsk-5qbUHLEEGtPF-48" vertex="1">
          <mxGeometry x="785.5400000000001" y="236.92307692307696" width="43.4" height="53.846153846153854" as="geometry" />
        </mxCell>
        <mxCell id="sVLnHsk-5qbUHLEEGtPF-35" value="" style="group" vertex="1" connectable="0" parent="sVLnHsk-5qbUHLEEGtPF-48">
          <mxGeometry x="756.4" y="360.7692307692308" width="105.39999999999999" height="70" as="geometry" />
        </mxCell>
        <mxCell id="sVLnHsk-5qbUHLEEGtPF-19" value="" style="" vertex="1" parent="sVLnHsk-5qbUHLEEGtPF-35">
          <mxGeometry y="16.153846153846153" width="18.599999999999994" height="53.84615384615385" as="geometry" />
        </mxCell>
        <mxCell id="sVLnHsk-5qbUHLEEGtPF-20" value="" style="shape=mxgraph.arrows2.arrow;dy=0.4;dx=16;notch=0;direction=north;" vertex="1" parent="sVLnHsk-5qbUHLEEGtPF-19">
          <mxGeometry x="1.8599999999999994" y="16.15384615384615" width="14.879999999999995" height="37.692307692307686" as="geometry" />
        </mxCell>
        <mxCell id="sVLnHsk-5qbUHLEEGtPF-21" value="Label" style="text;html=1;align=center;verticalAlign=middle;whiteSpace=wrap;fontSize=10;" vertex="1" parent="sVLnHsk-5qbUHLEEGtPF-19">
          <mxGeometry width="18.599999999999994" height="10.769230769230766" as="geometry" />
        </mxCell>
        <mxCell id="sVLnHsk-5qbUHLEEGtPF-22" value="" style="" vertex="1" parent="sVLnHsk-5qbUHLEEGtPF-35">
          <mxGeometry x="21.699999999999996" y="5.384615384615385" width="18.599999999999994" height="64.61538461538461" as="geometry" />
        </mxCell>
        <mxCell id="sVLnHsk-5qbUHLEEGtPF-23" value="" style="shape=mxgraph.arrows2.arrow;dy=0.4;dx=16;notch=0;direction=south;" vertex="1" parent="sVLnHsk-5qbUHLEEGtPF-22">
          <mxGeometry x="1.8599999999999994" width="14.879999999999995" height="43.07692307692308" as="geometry" />
        </mxCell>
        <mxCell id="sVLnHsk-5qbUHLEEGtPF-24" value="Label" style="text;html=1;align=center;verticalAlign=middle;whiteSpace=wrap;fontSize=10;" vertex="1" parent="sVLnHsk-5qbUHLEEGtPF-22">
          <mxGeometry width="18.599999999999994" height="10.76923076923077" as="geometry" />
        </mxCell>
        <mxCell id="sVLnHsk-5qbUHLEEGtPF-25" value="" style="" vertex="1" parent="sVLnHsk-5qbUHLEEGtPF-35">
          <mxGeometry x="43.39999999999999" width="18.599999999999994" height="70" as="geometry" />
        </mxCell>
        <mxCell id="sVLnHsk-5qbUHLEEGtPF-26" value="" style="shape=mxgraph.arrows2.arrow;dy=0.4;dx=16;notch=0;direction=north;" vertex="1" parent="sVLnHsk-5qbUHLEEGtPF-25">
          <mxGeometry x="1.8599999999999994" y="43.07692307692308" width="14.879999999999995" height="26.923076923076923" as="geometry" />
        </mxCell>
        <mxCell id="sVLnHsk-5qbUHLEEGtPF-27" value="Label" style="text;html=1;align=center;verticalAlign=middle;whiteSpace=wrap;fontSize=10;" vertex="1" parent="sVLnHsk-5qbUHLEEGtPF-25">
          <mxGeometry width="18.599999999999994" height="10.76923076923077" as="geometry" />
        </mxCell>
        <mxCell id="sVLnHsk-5qbUHLEEGtPF-28" value="" style="" vertex="1" parent="sVLnHsk-5qbUHLEEGtPF-35">
          <mxGeometry x="65.1" y="26.923076923076923" width="18.599999999999994" height="43.07692307692308" as="geometry" />
        </mxCell>
        <mxCell id="sVLnHsk-5qbUHLEEGtPF-29" value="" style="shape=mxgraph.arrows2.arrow;dy=0.4;dx=16;notch=0;direction=south;" vertex="1" parent="sVLnHsk-5qbUHLEEGtPF-28">
          <mxGeometry x="1.8599999999999994" width="14.879999999999995" height="16.153846153846153" as="geometry" />
        </mxCell>
        <mxCell id="sVLnHsk-5qbUHLEEGtPF-30" value="Label" style="text;html=1;align=center;verticalAlign=middle;whiteSpace=wrap;fontSize=10;" vertex="1" parent="sVLnHsk-5qbUHLEEGtPF-28">
          <mxGeometry width="18.599999999999994" height="10.76923076923077" as="geometry" />
        </mxCell>
        <mxCell id="sVLnHsk-5qbUHLEEGtPF-31" value="" style="" vertex="1" parent="sVLnHsk-5qbUHLEEGtPF-35">
          <mxGeometry x="86.79999999999998" y="32.30769230769231" width="18.599999999999994" height="37.692307692307686" as="geometry" />
        </mxCell>
        <mxCell id="sVLnHsk-5qbUHLEEGtPF-32" value="" style="shape=mxgraph.arrows2.arrow;dy=0.4;dx=16;notch=0;direction=north;" vertex="1" parent="sVLnHsk-5qbUHLEEGtPF-31">
          <mxGeometry x="1.8599999999999994" y="5.384615384615383" width="14.879999999999995" height="32.3076923076923" as="geometry" />
        </mxCell>
        <mxCell id="sVLnHsk-5qbUHLEEGtPF-33" value="Label" style="text;html=1;align=center;verticalAlign=middle;whiteSpace=wrap;fontSize=10;" vertex="1" parent="sVLnHsk-5qbUHLEEGtPF-31">
          <mxGeometry width="18.599999999999994" height="10.769230769230766" as="geometry" />
        </mxCell>
        <mxCell id="sVLnHsk-5qbUHLEEGtPF-46" value="&lt;h1 style=&quot;font-size: 16px&quot;&gt;&lt;font style=&quot;font-size: 16px&quot;&gt;IT/技術力&lt;/font&gt;&lt;/h1&gt;&lt;p style=&quot;font-size: 16px&quot;&gt;&lt;font style=&quot;font-size: 16px&quot;&gt;データの取得、分析なぢをIT技術で実施できる、また技術を使えば何をできるかを理解できる人材&lt;/font&gt;&lt;/p&gt;" style="text;html=1;strokeColor=none;fillColor=none;spacing=5;spacingTop=-20;whiteSpace=wrap;overflow=hidden;rounded=0;shadow=0;dashed=0;fontFamily=Helvetica;fontSize=15;fontColor=#FFFFFF;align=left;" vertex="1" parent="sVLnHsk-5qbUHLEEGtPF-48">
          <mxGeometry x="291.4" y="226.1538461538462" width="415.4" height="75.38461538461539" as="geometry" />
        </mxCell>
        <mxCell id="sVLnHsk-5qbUHLEEGtPF-47" value="&lt;h1 style=&quot;font-size: 16px&quot;&gt;&lt;font style=&quot;font-size: 16px&quot;&gt;統計力&lt;/font&gt;&lt;/h1&gt;&lt;p style=&quot;font-size: 16px&quot;&gt;&lt;font style=&quot;font-size: 16px&quot;&gt;統計解析や機械学習ができる、その結果が読めるレベルの統計知識を習得した人材&lt;/font&gt;&lt;/p&gt;" style="text;html=1;strokeColor=none;fillColor=none;spacing=5;spacingTop=-20;whiteSpace=wrap;overflow=hidden;rounded=0;shadow=0;dashed=0;fontFamily=Helvetica;fontSize=15;fontColor=#FFFFFF;align=left;" vertex="1" parent="sVLnHsk-5qbUHLEEGtPF-48">
          <mxGeometry x="291.4" y="358.07692307692315" width="415.4" height="75.38461538461539" as="geometry" />
        </mxCell>
        <mxCell id="sVLnHsk-5qbUHLEEGtPF-49" value="ビッグデータ 活用に必要なスキル" style="text;html=1;strokeColor=none;fillColor=none;align=center;verticalAlign=middle;whiteSpace=wrap;rounded=0;fontSize=35;" vertex="1" parent="sVLnHsk-5qbUHLEEGtPF-48">
          <mxGeometry x="111.60000000000001" y="30" width="553.6" height="20" as="geometry" />
        </mxCell>
      </root>
    </mxGraphModel>
  </diagram>
</mxfile>
